<mxfile host="Electron" modified="2024-08-28T06:20:54.156Z" agent="Mozilla/5.0 (Windows NT 10.0; Win64; x64) AppleWebKit/537.36 (KHTML, like Gecko) draw.io/24.5.1 Chrome/124.0.6367.207 Electron/30.0.6 Safari/537.36" etag="Fa7mh6_bDk_fcL70gzfd" version="24.5.1" type="device">
  <diagram name="Page-1" id="Ap_IeOITIPqS7IMRYINQ">
    <mxGraphModel dx="2440" dy="1407" grid="1" gridSize="10" guides="1" tooltips="1" connect="1" arrows="1" fold="1" page="1" pageScale="1" pageWidth="827" pageHeight="1169" math="0" shadow="0">
      <root>
        <mxCell id="0" />
        <mxCell id="1" parent="0" />
        <mxCell id="MYtJoypPJPzwyazHWaCz-19" value="センサノード(Nano ESP32)" style="swimlane;whiteSpace=wrap;html=1;fillColor=#008184;fontColor=#FFFFFF;strokeColor=#1F5A5C;gradientColor=none;swimlaneFillColor=#FFFFFF;" vertex="1" parent="1">
          <mxGeometry x="30" y="89" width="430" height="511" as="geometry" />
        </mxCell>
        <mxCell id="MYtJoypPJPzwyazHWaCz-13" value="状態表示" style="swimlane;fontStyle=0;align=center;verticalAlign=top;childLayout=stackLayout;horizontal=1;startSize=26;horizontalStack=0;resizeParent=1;resizeLast=0;collapsible=1;marginBottom=0;rounded=1;shadow=0;strokeWidth=1;fillColor=#008184;fontColor=#FFFFFF;" vertex="1" parent="MYtJoypPJPzwyazHWaCz-19">
          <mxGeometry x="20" y="41" width="160" height="119" as="geometry">
            <mxRectangle x="550" y="140" width="160" height="26" as="alternateBounds" />
          </mxGeometry>
        </mxCell>
        <mxCell id="MYtJoypPJPzwyazHWaCz-14" value="LEDの色で表示する。&#xa;&#xa;初期化中 ... 黄点滅&#xa;BLEペアリング待ち ... 白&#xa;BLEペアリング中 ... 青&#xa;エラー ... 赤" style="text;align=left;verticalAlign=top;spacingLeft=4;spacingRight=4;overflow=hidden;rotatable=0;points=[[0,0.5],[1,0.5]];portConstraint=eastwest;" vertex="1" parent="MYtJoypPJPzwyazHWaCz-13">
          <mxGeometry y="26" width="160" height="84" as="geometry" />
        </mxCell>
        <mxCell id="MYtJoypPJPzwyazHWaCz-64" style="edgeStyle=orthogonalEdgeStyle;rounded=0;orthogonalLoop=1;jettySize=auto;html=1;entryX=0.5;entryY=1;entryDx=0;entryDy=0;" edge="1" parent="MYtJoypPJPzwyazHWaCz-19" source="MYtJoypPJPzwyazHWaCz-20" target="MYtJoypPJPzwyazHWaCz-13">
          <mxGeometry relative="1" as="geometry" />
        </mxCell>
        <mxCell id="MYtJoypPJPzwyazHWaCz-20" value="MHZ19Cセンサ初期化" style="swimlane;fontStyle=0;align=center;verticalAlign=top;childLayout=stackLayout;horizontal=1;startSize=26;horizontalStack=0;resizeParent=1;resizeLast=0;collapsible=1;marginBottom=0;rounded=0;shadow=0;strokeWidth=1;fillColor=#E8BC09;" vertex="1" parent="MYtJoypPJPzwyazHWaCz-19">
          <mxGeometry x="20" y="200.5" width="160" height="110" as="geometry">
            <mxRectangle x="550" y="140" width="160" height="26" as="alternateBounds" />
          </mxGeometry>
        </mxCell>
        <mxCell id="MYtJoypPJPzwyazHWaCz-21" value="処理内容&#xa;&#xa;本体起動後、preheat時間(3分間)メインスレッドを待機させる。" style="text;align=left;verticalAlign=top;spacingLeft=4;spacingRight=4;overflow=hidden;rotatable=0;points=[[0,0.5],[1,0.5]];portConstraint=eastwest;whiteSpace=wrap;" vertex="1" parent="MYtJoypPJPzwyazHWaCz-20">
          <mxGeometry y="26" width="160" height="84" as="geometry" />
        </mxCell>
        <mxCell id="MYtJoypPJPzwyazHWaCz-25" value="BLE送信" style="swimlane;fontStyle=0;align=center;verticalAlign=top;childLayout=stackLayout;horizontal=1;startSize=26;horizontalStack=0;resizeParent=1;resizeLast=0;collapsible=1;marginBottom=0;rounded=0;shadow=0;strokeWidth=1;fillColor=#0082FC;fontColor=#FFFFFF;" vertex="1" parent="MYtJoypPJPzwyazHWaCz-19">
          <mxGeometry x="250" y="361" width="160" height="137" as="geometry">
            <mxRectangle x="550" y="140" width="160" height="26" as="alternateBounds" />
          </mxGeometry>
        </mxCell>
        <mxCell id="MYtJoypPJPzwyazHWaCz-26" value="処理内容 Notifyする" style="text;align=left;verticalAlign=top;spacingLeft=4;spacingRight=4;overflow=hidden;rotatable=0;points=[[0,0.5],[1,0.5]];portConstraint=eastwest;" vertex="1" parent="MYtJoypPJPzwyazHWaCz-25">
          <mxGeometry y="26" width="160" height="26" as="geometry" />
        </mxCell>
        <mxCell id="MYtJoypPJPzwyazHWaCz-27" value="" style="line;html=1;strokeWidth=1;align=left;verticalAlign=middle;spacingTop=-1;spacingLeft=3;spacingRight=3;rotatable=0;labelPosition=right;points=[];portConstraint=eastwest;" vertex="1" parent="MYtJoypPJPzwyazHWaCz-25">
          <mxGeometry y="52" width="160" height="8" as="geometry" />
        </mxCell>
        <mxCell id="MYtJoypPJPzwyazHWaCz-28" value="データ: CO2濃度(ppm)" style="text;align=left;verticalAlign=top;spacingLeft=4;spacingRight=4;overflow=hidden;rotatable=0;points=[[0,0.5],[1,0.5]];portConstraint=eastwest;" vertex="1" parent="MYtJoypPJPzwyazHWaCz-25">
          <mxGeometry y="60" width="160" height="26" as="geometry" />
        </mxCell>
        <mxCell id="MYtJoypPJPzwyazHWaCz-29" value="入出力先:&#xa;エッジノード" style="text;align=left;verticalAlign=top;spacingLeft=4;spacingRight=4;overflow=hidden;rotatable=0;points=[[0,0.5],[1,0.5]];portConstraint=eastwest;whiteSpace=wrap;" vertex="1" parent="MYtJoypPJPzwyazHWaCz-25">
          <mxGeometry y="86" width="160" height="44" as="geometry" />
        </mxCell>
        <mxCell id="MYtJoypPJPzwyazHWaCz-40" value="計測値&lt;div&gt;UART&lt;/div&gt;" style="edgeStyle=orthogonalEdgeStyle;rounded=0;orthogonalLoop=1;jettySize=auto;html=1;entryX=0.013;entryY=0.308;entryDx=0;entryDy=0;entryPerimeter=0;" edge="1" parent="MYtJoypPJPzwyazHWaCz-19" source="MYtJoypPJPzwyazHWaCz-1" target="MYtJoypPJPzwyazHWaCz-28">
          <mxGeometry relative="1" as="geometry" />
        </mxCell>
        <mxCell id="MYtJoypPJPzwyazHWaCz-1" value="CO2濃度計測" style="swimlane;fontStyle=0;align=center;verticalAlign=top;childLayout=stackLayout;horizontal=1;startSize=26;horizontalStack=0;resizeParent=1;resizeLast=0;collapsible=1;marginBottom=0;rounded=0;shadow=0;strokeWidth=1;fillColor=#E8BC09;" vertex="1" parent="MYtJoypPJPzwyazHWaCz-19">
          <mxGeometry x="20" y="361" width="160" height="137" as="geometry">
            <mxRectangle x="550" y="140" width="160" height="26" as="alternateBounds" />
          </mxGeometry>
        </mxCell>
        <mxCell id="MYtJoypPJPzwyazHWaCz-2" value="処理内容" style="text;align=left;verticalAlign=top;spacingLeft=4;spacingRight=4;overflow=hidden;rotatable=0;points=[[0,0.5],[1,0.5]];portConstraint=eastwest;" vertex="1" parent="MYtJoypPJPzwyazHWaCz-1">
          <mxGeometry y="26" width="160" height="26" as="geometry" />
        </mxCell>
        <mxCell id="MYtJoypPJPzwyazHWaCz-3" value="" style="line;html=1;strokeWidth=1;align=left;verticalAlign=middle;spacingTop=-1;spacingLeft=3;spacingRight=3;rotatable=0;labelPosition=right;points=[];portConstraint=eastwest;" vertex="1" parent="MYtJoypPJPzwyazHWaCz-1">
          <mxGeometry y="52" width="160" height="8" as="geometry" />
        </mxCell>
        <mxCell id="MYtJoypPJPzwyazHWaCz-4" value="データ: CO2濃度(ppm)" style="text;align=left;verticalAlign=top;spacingLeft=4;spacingRight=4;overflow=hidden;rotatable=0;points=[[0,0.5],[1,0.5]];portConstraint=eastwest;" vertex="1" parent="MYtJoypPJPzwyazHWaCz-1">
          <mxGeometry y="60" width="160" height="26" as="geometry" />
        </mxCell>
        <mxCell id="MYtJoypPJPzwyazHWaCz-5" value="入出力先:&#xa;MHZ-19Cセンサから取得" style="text;align=left;verticalAlign=top;spacingLeft=4;spacingRight=4;overflow=hidden;rotatable=0;points=[[0,0.5],[1,0.5]];portConstraint=eastwest;whiteSpace=wrap;" vertex="1" parent="MYtJoypPJPzwyazHWaCz-1">
          <mxGeometry y="86" width="160" height="44" as="geometry" />
        </mxCell>
        <mxCell id="MYtJoypPJPzwyazHWaCz-35" value="BLE Advertize" style="swimlane;fontStyle=0;align=center;verticalAlign=top;childLayout=stackLayout;horizontal=1;startSize=26;horizontalStack=0;resizeParent=1;resizeLast=0;collapsible=1;marginBottom=0;rounded=0;shadow=0;strokeWidth=1;fillColor=#0082FC;fontColor=#FFFFFF;" vertex="1" parent="MYtJoypPJPzwyazHWaCz-19">
          <mxGeometry x="250" y="41" width="160" height="154" as="geometry">
            <mxRectangle x="550" y="140" width="160" height="26" as="alternateBounds" />
          </mxGeometry>
        </mxCell>
        <mxCell id="MYtJoypPJPzwyazHWaCz-36" value="処理内容&#xa;&#xa;BLE Advertizeシグナルを発信して、Peripheralとしてペアリングできるようにする。" style="text;align=left;verticalAlign=top;spacingLeft=4;spacingRight=4;overflow=hidden;rotatable=0;points=[[0,0.5],[1,0.5]];portConstraint=eastwest;whiteSpace=wrap;" vertex="1" parent="MYtJoypPJPzwyazHWaCz-35">
          <mxGeometry y="26" width="160" height="94" as="geometry" />
        </mxCell>
        <mxCell id="MYtJoypPJPzwyazHWaCz-37" value="" style="line;html=1;strokeWidth=1;align=left;verticalAlign=middle;spacingTop=-1;spacingLeft=3;spacingRight=3;rotatable=0;labelPosition=right;points=[];portConstraint=eastwest;" vertex="1" parent="MYtJoypPJPzwyazHWaCz-35">
          <mxGeometry y="120" width="160" height="8" as="geometry" />
        </mxCell>
        <mxCell id="MYtJoypPJPzwyazHWaCz-38" value="データ: 各種UUID" style="text;align=left;verticalAlign=top;spacingLeft=4;spacingRight=4;overflow=hidden;rotatable=0;points=[[0,0.5],[1,0.5]];portConstraint=eastwest;" vertex="1" parent="MYtJoypPJPzwyazHWaCz-35">
          <mxGeometry y="128" width="160" height="26" as="geometry" />
        </mxCell>
        <mxCell id="MYtJoypPJPzwyazHWaCz-30" value="BLEペアリング" style="swimlane;fontStyle=0;align=center;verticalAlign=top;childLayout=stackLayout;horizontal=1;startSize=26;horizontalStack=0;resizeParent=1;resizeLast=0;collapsible=1;marginBottom=0;rounded=0;shadow=0;strokeWidth=1;fillColor=#0082FC;fontColor=#FFFFFF;" vertex="1" parent="MYtJoypPJPzwyazHWaCz-19">
          <mxGeometry x="250" y="211" width="160" height="137" as="geometry">
            <mxRectangle x="550" y="140" width="160" height="26" as="alternateBounds" />
          </mxGeometry>
        </mxCell>
        <mxCell id="MYtJoypPJPzwyazHWaCz-31" value="処理内容" style="text;align=left;verticalAlign=top;spacingLeft=4;spacingRight=4;overflow=hidden;rotatable=0;points=[[0,0.5],[1,0.5]];portConstraint=eastwest;" vertex="1" parent="MYtJoypPJPzwyazHWaCz-30">
          <mxGeometry y="26" width="160" height="26" as="geometry" />
        </mxCell>
        <mxCell id="MYtJoypPJPzwyazHWaCz-32" value="" style="line;html=1;strokeWidth=1;align=left;verticalAlign=middle;spacingTop=-1;spacingLeft=3;spacingRight=3;rotatable=0;labelPosition=right;points=[];portConstraint=eastwest;" vertex="1" parent="MYtJoypPJPzwyazHWaCz-30">
          <mxGeometry y="52" width="160" height="8" as="geometry" />
        </mxCell>
        <mxCell id="MYtJoypPJPzwyazHWaCz-33" value="データ: CO2濃度(ppm)" style="text;align=left;verticalAlign=top;spacingLeft=4;spacingRight=4;overflow=hidden;rotatable=0;points=[[0,0.5],[1,0.5]];portConstraint=eastwest;" vertex="1" parent="MYtJoypPJPzwyazHWaCz-30">
          <mxGeometry y="60" width="160" height="26" as="geometry" />
        </mxCell>
        <mxCell id="MYtJoypPJPzwyazHWaCz-34" value="入出力先:&#xa;MHZ-19Cセンサから取得" style="text;align=left;verticalAlign=top;spacingLeft=4;spacingRight=4;overflow=hidden;rotatable=0;points=[[0,0.5],[1,0.5]];portConstraint=eastwest;whiteSpace=wrap;" vertex="1" parent="MYtJoypPJPzwyazHWaCz-30">
          <mxGeometry y="86" width="160" height="44" as="geometry" />
        </mxCell>
        <mxCell id="MYtJoypPJPzwyazHWaCz-65" style="edgeStyle=orthogonalEdgeStyle;rounded=0;orthogonalLoop=1;jettySize=auto;html=1;entryX=1;entryY=0.5;entryDx=0;entryDy=0;" edge="1" parent="MYtJoypPJPzwyazHWaCz-19" source="MYtJoypPJPzwyazHWaCz-36" target="MYtJoypPJPzwyazHWaCz-13">
          <mxGeometry relative="1" as="geometry" />
        </mxCell>
        <mxCell id="MYtJoypPJPzwyazHWaCz-66" style="edgeStyle=orthogonalEdgeStyle;rounded=0;orthogonalLoop=1;jettySize=auto;html=1;entryX=1.018;entryY=0.391;entryDx=0;entryDy=0;entryPerimeter=0;" edge="1" parent="MYtJoypPJPzwyazHWaCz-19" source="MYtJoypPJPzwyazHWaCz-30" target="MYtJoypPJPzwyazHWaCz-14">
          <mxGeometry relative="1" as="geometry">
            <Array as="points">
              <mxPoint x="210" y="280" />
              <mxPoint x="210" y="100" />
            </Array>
          </mxGeometry>
        </mxCell>
        <mxCell id="MYtJoypPJPzwyazHWaCz-41" value="エッジノード" style="swimlane;whiteSpace=wrap;html=1;fillColor=#29BEB0;fontColor=#FFFFFF;strokeColor=#2E878A;swimlaneFillColor=#FFFFFF;" vertex="1" parent="1">
          <mxGeometry x="570" y="89" width="350" height="551" as="geometry" />
        </mxCell>
        <mxCell id="MYtJoypPJPzwyazHWaCz-51" style="edgeStyle=orthogonalEdgeStyle;rounded=0;orthogonalLoop=1;jettySize=auto;html=1;entryX=0.5;entryY=0;entryDx=0;entryDy=0;" edge="1" parent="MYtJoypPJPzwyazHWaCz-41" source="MYtJoypPJPzwyazHWaCz-43" target="MYtJoypPJPzwyazHWaCz-47">
          <mxGeometry relative="1" as="geometry" />
        </mxCell>
        <mxCell id="MYtJoypPJPzwyazHWaCz-43" value="BLE Scan" style="swimlane;fontStyle=0;align=center;verticalAlign=top;childLayout=stackLayout;horizontal=1;startSize=26;horizontalStack=0;resizeParent=1;resizeLast=0;collapsible=1;marginBottom=0;rounded=0;shadow=0;strokeWidth=1;fillColor=#0082FC;fontColor=#FFFFFF;" vertex="1" parent="MYtJoypPJPzwyazHWaCz-41">
          <mxGeometry x="10" y="41" width="160" height="129" as="geometry">
            <mxRectangle x="550" y="140" width="160" height="26" as="alternateBounds" />
          </mxGeometry>
        </mxCell>
        <mxCell id="MYtJoypPJPzwyazHWaCz-44" value="処理内容&#xa;&#xa;周囲のBLE Advertizeシグナルを繰り返しスキャンする。ペアリングが完了したら停止。" style="text;align=left;verticalAlign=top;spacingLeft=4;spacingRight=4;overflow=hidden;rotatable=0;points=[[0,0.5],[1,0.5]];portConstraint=eastwest;whiteSpace=wrap;" vertex="1" parent="MYtJoypPJPzwyazHWaCz-43">
          <mxGeometry y="26" width="160" height="94" as="geometry" />
        </mxCell>
        <mxCell id="MYtJoypPJPzwyazHWaCz-47" value="BLE Connect" style="swimlane;fontStyle=0;align=center;verticalAlign=top;childLayout=stackLayout;horizontal=1;startSize=26;horizontalStack=0;resizeParent=1;resizeLast=0;collapsible=1;marginBottom=0;rounded=0;shadow=0;strokeWidth=1;fillColor=#0082FC;fontColor=#FFFFFF;" vertex="1" parent="MYtJoypPJPzwyazHWaCz-41">
          <mxGeometry x="10" y="211" width="160" height="100" as="geometry">
            <mxRectangle x="550" y="140" width="160" height="26" as="alternateBounds" />
          </mxGeometry>
        </mxCell>
        <mxCell id="MYtJoypPJPzwyazHWaCz-48" value="処理内容&#xa;&#xa;エッジノードのServiceを見つけて接続要求" style="text;align=left;verticalAlign=top;spacingLeft=4;spacingRight=4;overflow=hidden;rotatable=0;points=[[0,0.5],[1,0.5]];portConstraint=eastwest;whiteSpace=wrap;" vertex="1" parent="MYtJoypPJPzwyazHWaCz-47">
          <mxGeometry y="26" width="160" height="74" as="geometry" />
        </mxCell>
        <mxCell id="MYtJoypPJPzwyazHWaCz-99" style="edgeStyle=orthogonalEdgeStyle;rounded=0;orthogonalLoop=1;jettySize=auto;html=1;entryX=0.5;entryY=1;entryDx=0;entryDy=0;" edge="1" parent="MYtJoypPJPzwyazHWaCz-41" source="MYtJoypPJPzwyazHWaCz-56" target="MYtJoypPJPzwyazHWaCz-92">
          <mxGeometry relative="1" as="geometry" />
        </mxCell>
        <mxCell id="MYtJoypPJPzwyazHWaCz-56" value="BLE受取" style="swimlane;fontStyle=0;align=center;verticalAlign=top;childLayout=stackLayout;horizontal=1;startSize=26;horizontalStack=0;resizeParent=1;resizeLast=0;collapsible=1;marginBottom=0;rounded=0;shadow=0;strokeWidth=1;fillColor=#0082FC;fontColor=#FFFFFF;" vertex="1" parent="MYtJoypPJPzwyazHWaCz-41">
          <mxGeometry x="10" y="361" width="160" height="154" as="geometry">
            <mxRectangle x="550" y="140" width="160" height="26" as="alternateBounds" />
          </mxGeometry>
        </mxCell>
        <mxCell id="MYtJoypPJPzwyazHWaCz-57" value="処理内容 Notifyパケットを受信する。" style="text;align=left;verticalAlign=top;spacingLeft=4;spacingRight=4;overflow=hidden;rotatable=0;points=[[0,0.5],[1,0.5]];portConstraint=eastwest;whiteSpace=wrap;" vertex="1" parent="MYtJoypPJPzwyazHWaCz-56">
          <mxGeometry y="26" width="160" height="34" as="geometry" />
        </mxCell>
        <mxCell id="MYtJoypPJPzwyazHWaCz-58" value="" style="line;html=1;strokeWidth=1;align=left;verticalAlign=middle;spacingTop=-1;spacingLeft=3;spacingRight=3;rotatable=0;labelPosition=right;points=[];portConstraint=eastwest;" vertex="1" parent="MYtJoypPJPzwyazHWaCz-56">
          <mxGeometry y="60" width="160" height="8" as="geometry" />
        </mxCell>
        <mxCell id="MYtJoypPJPzwyazHWaCz-59" value="データ: &#xa;CO2濃度(ppm), 現在時刻" style="text;align=left;verticalAlign=top;spacingLeft=4;spacingRight=4;overflow=hidden;rotatable=0;points=[[0,0.5],[1,0.5]];portConstraint=eastwest;" vertex="1" parent="MYtJoypPJPzwyazHWaCz-56">
          <mxGeometry y="68" width="160" height="42" as="geometry" />
        </mxCell>
        <mxCell id="MYtJoypPJPzwyazHWaCz-60" value="入出力先:&#xa;ゲートウェイサーバ" style="text;align=left;verticalAlign=top;spacingLeft=4;spacingRight=4;overflow=hidden;rotatable=0;points=[[0,0.5],[1,0.5]];portConstraint=eastwest;whiteSpace=wrap;" vertex="1" parent="MYtJoypPJPzwyazHWaCz-56">
          <mxGeometry y="110" width="160" height="44" as="geometry" />
        </mxCell>
        <mxCell id="MYtJoypPJPzwyazHWaCz-92" value="ゲートウェイに送信" style="swimlane;fontStyle=0;align=center;verticalAlign=top;childLayout=stackLayout;horizontal=1;startSize=26;horizontalStack=0;resizeParent=1;resizeLast=0;collapsible=1;marginBottom=0;rounded=0;shadow=0;strokeWidth=1;fillColor=#dae8fc;strokeColor=#6c8ebf;" vertex="1" parent="MYtJoypPJPzwyazHWaCz-41">
          <mxGeometry x="180" y="73" width="160" height="90" as="geometry">
            <mxRectangle x="550" y="140" width="160" height="26" as="alternateBounds" />
          </mxGeometry>
        </mxCell>
        <mxCell id="MYtJoypPJPzwyazHWaCz-144" value="本来ならここで通信するが、今回は自宅環境なのでメモリ上で行なわれる" style="text;html=1;align=left;verticalAlign=top;whiteSpace=wrap;rounded=0;" vertex="1" parent="MYtJoypPJPzwyazHWaCz-92">
          <mxGeometry y="26" width="160" height="64" as="geometry" />
        </mxCell>
        <mxCell id="MYtJoypPJPzwyazHWaCz-42" value="ゲートウェイ・ハブ" style="swimlane;whiteSpace=wrap;html=1;fillColor=#29BEB0;fontColor=#FFFFFF;strokeColor=#2E878A;swimlaneFillColor=#FFFFFF;" vertex="1" parent="1">
          <mxGeometry x="930" y="89" width="210" height="571" as="geometry" />
        </mxCell>
        <mxCell id="MYtJoypPJPzwyazHWaCz-90" value="現在値ブロードキャスト" style="swimlane;fontStyle=0;align=center;verticalAlign=top;childLayout=stackLayout;horizontal=1;startSize=26;horizontalStack=0;resizeParent=1;resizeLast=0;collapsible=1;marginBottom=0;rounded=0;shadow=0;strokeWidth=1;fillColor=#A9FCDB;fontColor=#000000;" vertex="1" parent="MYtJoypPJPzwyazHWaCz-42">
          <mxGeometry x="25" y="50" width="160" height="111" as="geometry">
            <mxRectangle x="550" y="140" width="160" height="26" as="alternateBounds" />
          </mxGeometry>
        </mxCell>
        <mxCell id="MYtJoypPJPzwyazHWaCz-91" value="処理内容&#xa;&#xa;接続している全フロントエンドにSocketでセンサデータの現在値を送信する" style="text;align=left;verticalAlign=top;spacingLeft=4;spacingRight=4;overflow=hidden;rotatable=0;points=[[0,0.5],[1,0.5]];portConstraint=eastwest;whiteSpace=wrap;" vertex="1" parent="MYtJoypPJPzwyazHWaCz-90">
          <mxGeometry y="26" width="160" height="84" as="geometry" />
        </mxCell>
        <mxCell id="MYtJoypPJPzwyazHWaCz-116" value="History提供" style="swimlane;fontStyle=0;align=center;verticalAlign=top;childLayout=stackLayout;horizontal=1;startSize=26;horizontalStack=0;resizeParent=1;resizeLast=0;collapsible=1;marginBottom=0;rounded=0;shadow=0;strokeWidth=1;fillColor=#FCBA79;fontColor=default;" vertex="1" parent="MYtJoypPJPzwyazHWaCz-42">
          <mxGeometry x="25" y="182" width="160" height="140" as="geometry">
            <mxRectangle x="550" y="140" width="160" height="26" as="alternateBounds" />
          </mxGeometry>
        </mxCell>
        <mxCell id="MYtJoypPJPzwyazHWaCz-117" value="処理内容&#xa;&#xa;1分おきに現在値をメモリに保存する(1440件が上限のQueue)&#xa;RESTリクエストに対してQueueを返す。" style="text;align=left;verticalAlign=top;spacingLeft=4;spacingRight=4;overflow=hidden;rotatable=0;points=[[0,0.5],[1,0.5]];portConstraint=eastwest;whiteSpace=wrap;" vertex="1" parent="MYtJoypPJPzwyazHWaCz-116">
          <mxGeometry y="26" width="160" height="114" as="geometry" />
        </mxCell>
        <mxCell id="MYtJoypPJPzwyazHWaCz-119" value="Socketサーバ" style="swimlane;fontStyle=0;align=center;verticalAlign=top;childLayout=stackLayout;horizontal=1;startSize=26;horizontalStack=0;resizeParent=1;resizeLast=0;collapsible=1;marginBottom=0;rounded=0;shadow=0;strokeWidth=1;fillColor=#A9FCDB;fontColor=#000000;" vertex="1" parent="MYtJoypPJPzwyazHWaCz-42">
          <mxGeometry x="25" y="341" width="160" height="110" as="geometry">
            <mxRectangle x="550" y="140" width="160" height="26" as="alternateBounds" />
          </mxGeometry>
        </mxCell>
        <mxCell id="MYtJoypPJPzwyazHWaCz-120" value="処理内容&#xa;&#xa;フロントエンドからのSocket通信要求を受け取り、通信路を確立する。" style="text;align=left;verticalAlign=top;spacingLeft=4;spacingRight=4;overflow=hidden;rotatable=0;points=[[0,0.5],[1,0.5]];portConstraint=eastwest;whiteSpace=wrap;" vertex="1" parent="MYtJoypPJPzwyazHWaCz-119">
          <mxGeometry y="26" width="160" height="84" as="geometry" />
        </mxCell>
        <mxCell id="MYtJoypPJPzwyazHWaCz-67" value="データ記録" style="swimlane;fontStyle=0;align=center;verticalAlign=top;childLayout=stackLayout;horizontal=1;startSize=26;horizontalStack=0;resizeParent=1;resizeLast=0;collapsible=1;marginBottom=0;rounded=0;shadow=0;strokeWidth=1;fillColor=#5d87a1;fontColor=#FFFFFF;" vertex="1" parent="MYtJoypPJPzwyazHWaCz-42">
          <mxGeometry x="25" y="471" width="160" height="80" as="geometry">
            <mxRectangle x="550" y="140" width="160" height="26" as="alternateBounds" />
          </mxGeometry>
        </mxCell>
        <mxCell id="MYtJoypPJPzwyazHWaCz-68" value="処理内容&#xa;SQLiteに10分間隔で1件INSERT" style="text;align=left;verticalAlign=top;spacingLeft=4;spacingRight=4;overflow=hidden;rotatable=0;points=[[0,0.5],[1,0.5]];portConstraint=eastwest;whiteSpace=wrap;" vertex="1" parent="MYtJoypPJPzwyazHWaCz-67">
          <mxGeometry y="26" width="160" height="54" as="geometry" />
        </mxCell>
        <mxCell id="MYtJoypPJPzwyazHWaCz-50" style="edgeStyle=orthogonalEdgeStyle;rounded=0;orthogonalLoop=1;jettySize=auto;html=1;entryX=1;entryY=0.5;entryDx=0;entryDy=0;" edge="1" parent="1" source="MYtJoypPJPzwyazHWaCz-47" target="MYtJoypPJPzwyazHWaCz-33">
          <mxGeometry relative="1" as="geometry">
            <mxPoint x="500" y="400" as="targetPoint" />
          </mxGeometry>
        </mxCell>
        <mxCell id="MYtJoypPJPzwyazHWaCz-52" value="BLE Adv" style="edgeStyle=orthogonalEdgeStyle;rounded=0;orthogonalLoop=1;jettySize=auto;html=1;entryX=0;entryY=0.5;entryDx=0;entryDy=0;" edge="1" parent="1" source="MYtJoypPJPzwyazHWaCz-35" target="MYtJoypPJPzwyazHWaCz-44">
          <mxGeometry relative="1" as="geometry" />
        </mxCell>
        <mxCell id="MYtJoypPJPzwyazHWaCz-55" value="&lt;div&gt;計測値(2バイト)&lt;/div&gt;BLE Notify" style="edgeStyle=orthogonalEdgeStyle;rounded=0;orthogonalLoop=1;jettySize=auto;html=1;entryX=0;entryY=0.5;entryDx=0;entryDy=0;" edge="1" parent="1" source="MYtJoypPJPzwyazHWaCz-25" target="MYtJoypPJPzwyazHWaCz-59">
          <mxGeometry relative="1" as="geometry">
            <mxPoint x="550" y="500" as="targetPoint" />
          </mxGeometry>
        </mxCell>
        <mxCell id="MYtJoypPJPzwyazHWaCz-62" value="現在モノリスで構築中(Goアプリ/WindowsPC上)" style="rounded=0;whiteSpace=wrap;html=1;fillColor=#29beb0;fontColor=#FFFFFF;strokeColor=none;" vertex="1" parent="1">
          <mxGeometry x="570" y="30" width="570" height="50" as="geometry" />
        </mxCell>
        <mxCell id="MYtJoypPJPzwyazHWaCz-63" value="フロントエンド(Windows Flutter)" style="swimlane;whiteSpace=wrap;html=1;swimlaneFillColor=#FFFFFF;" vertex="1" parent="1">
          <mxGeometry x="1260" y="89" width="560" height="751" as="geometry" />
        </mxCell>
        <mxCell id="MYtJoypPJPzwyazHWaCz-6" value="センサデータ現在値表示" style="swimlane;fontStyle=0;align=center;verticalAlign=top;childLayout=stackLayout;horizontal=1;startSize=26;horizontalStack=0;resizeParent=1;resizeLast=0;collapsible=1;marginBottom=0;rounded=1;shadow=0;strokeWidth=1;" vertex="1" parent="MYtJoypPJPzwyazHWaCz-63">
          <mxGeometry x="210" y="51" width="160" height="216" as="geometry">
            <mxRectangle x="550" y="140" width="160" height="26" as="alternateBounds" />
          </mxGeometry>
        </mxCell>
        <mxCell id="MYtJoypPJPzwyazHWaCz-7" value="処理内容　バロメータ表示" style="text;align=left;verticalAlign=top;spacingLeft=4;spacingRight=4;overflow=hidden;rotatable=0;points=[[0,0.5],[1,0.5]];portConstraint=eastwest;" vertex="1" parent="MYtJoypPJPzwyazHWaCz-6">
          <mxGeometry y="26" width="160" height="26" as="geometry" />
        </mxCell>
        <mxCell id="MYtJoypPJPzwyazHWaCz-8" value="" style="line;html=1;strokeWidth=1;align=left;verticalAlign=middle;spacingTop=-1;spacingLeft=3;spacingRight=3;rotatable=0;labelPosition=right;points=[];portConstraint=eastwest;" vertex="1" parent="MYtJoypPJPzwyazHWaCz-6">
          <mxGeometry y="52" width="160" height="8" as="geometry" />
        </mxCell>
        <mxCell id="MYtJoypPJPzwyazHWaCz-9" value="データ&#xa;" style="text;align=left;verticalAlign=top;spacingLeft=4;spacingRight=4;overflow=hidden;rotatable=0;points=[[0,0.5],[1,0.5]];portConstraint=eastwest;" vertex="1" parent="MYtJoypPJPzwyazHWaCz-6">
          <mxGeometry y="60" width="160" height="26" as="geometry" />
        </mxCell>
        <mxCell id="MYtJoypPJPzwyazHWaCz-10" value="入出力先" style="text;align=left;verticalAlign=top;spacingLeft=4;spacingRight=4;overflow=hidden;rotatable=0;points=[[0,0.5],[1,0.5]];portConstraint=eastwest;" vertex="1" parent="MYtJoypPJPzwyazHWaCz-6">
          <mxGeometry y="86" width="160" height="26" as="geometry" />
        </mxCell>
        <mxCell id="MYtJoypPJPzwyazHWaCz-11" value="" style="line;html=1;strokeWidth=1;align=left;verticalAlign=middle;spacingTop=-1;spacingLeft=3;spacingRight=3;rotatable=0;labelPosition=right;points=[];portConstraint=eastwest;" vertex="1" parent="MYtJoypPJPzwyazHWaCz-6">
          <mxGeometry y="112" width="160" height="8" as="geometry" />
        </mxCell>
        <mxCell id="MYtJoypPJPzwyazHWaCz-12" value="ユーザー入力" style="text;align=left;verticalAlign=top;spacingLeft=4;spacingRight=4;overflow=hidden;rotatable=0;points=[[0,0.5],[1,0.5]];portConstraint=eastwest;" vertex="1" parent="MYtJoypPJPzwyazHWaCz-6">
          <mxGeometry y="120" width="160" height="26" as="geometry" />
        </mxCell>
        <mxCell id="MYtJoypPJPzwyazHWaCz-69" value="グラフ表示" style="swimlane;fontStyle=0;align=center;verticalAlign=top;childLayout=stackLayout;horizontal=1;startSize=26;horizontalStack=0;resizeParent=1;resizeLast=0;collapsible=1;marginBottom=0;rounded=1;shadow=0;strokeWidth=1;" vertex="1" parent="MYtJoypPJPzwyazHWaCz-63">
          <mxGeometry x="210" y="291" width="160" height="216" as="geometry">
            <mxRectangle x="550" y="140" width="160" height="26" as="alternateBounds" />
          </mxGeometry>
        </mxCell>
        <mxCell id="MYtJoypPJPzwyazHWaCz-70" value="処理内容" style="text;align=left;verticalAlign=top;spacingLeft=4;spacingRight=4;overflow=hidden;rotatable=0;points=[[0,0.5],[1,0.5]];portConstraint=eastwest;" vertex="1" parent="MYtJoypPJPzwyazHWaCz-69">
          <mxGeometry y="26" width="160" height="26" as="geometry" />
        </mxCell>
        <mxCell id="MYtJoypPJPzwyazHWaCz-71" value="" style="line;html=1;strokeWidth=1;align=left;verticalAlign=middle;spacingTop=-1;spacingLeft=3;spacingRight=3;rotatable=0;labelPosition=right;points=[];portConstraint=eastwest;" vertex="1" parent="MYtJoypPJPzwyazHWaCz-69">
          <mxGeometry y="52" width="160" height="8" as="geometry" />
        </mxCell>
        <mxCell id="MYtJoypPJPzwyazHWaCz-72" value="データ&#xa;" style="text;align=left;verticalAlign=top;spacingLeft=4;spacingRight=4;overflow=hidden;rotatable=0;points=[[0,0.5],[1,0.5]];portConstraint=eastwest;" vertex="1" parent="MYtJoypPJPzwyazHWaCz-69">
          <mxGeometry y="60" width="160" height="26" as="geometry" />
        </mxCell>
        <mxCell id="MYtJoypPJPzwyazHWaCz-73" value="入出力先" style="text;align=left;verticalAlign=top;spacingLeft=4;spacingRight=4;overflow=hidden;rotatable=0;points=[[0,0.5],[1,0.5]];portConstraint=eastwest;" vertex="1" parent="MYtJoypPJPzwyazHWaCz-69">
          <mxGeometry y="86" width="160" height="26" as="geometry" />
        </mxCell>
        <mxCell id="MYtJoypPJPzwyazHWaCz-74" value="" style="line;html=1;strokeWidth=1;align=left;verticalAlign=middle;spacingTop=-1;spacingLeft=3;spacingRight=3;rotatable=0;labelPosition=right;points=[];portConstraint=eastwest;" vertex="1" parent="MYtJoypPJPzwyazHWaCz-69">
          <mxGeometry y="112" width="160" height="8" as="geometry" />
        </mxCell>
        <mxCell id="MYtJoypPJPzwyazHWaCz-75" value="ユーザー入力" style="text;align=left;verticalAlign=top;spacingLeft=4;spacingRight=4;overflow=hidden;rotatable=0;points=[[0,0.5],[1,0.5]];portConstraint=eastwest;" vertex="1" parent="MYtJoypPJPzwyazHWaCz-69">
          <mxGeometry y="120" width="160" height="26" as="geometry" />
        </mxCell>
        <mxCell id="MYtJoypPJPzwyazHWaCz-139" style="edgeStyle=orthogonalEdgeStyle;rounded=0;orthogonalLoop=1;jettySize=auto;html=1;entryX=0;entryY=0.691;entryDx=0;entryDy=0;entryPerimeter=0;" edge="1" parent="MYtJoypPJPzwyazHWaCz-63" source="MYtJoypPJPzwyazHWaCz-108" target="MYtJoypPJPzwyazHWaCz-10">
          <mxGeometry relative="1" as="geometry">
            <mxPoint x="200" y="201" as="targetPoint" />
          </mxGeometry>
        </mxCell>
        <mxCell id="MYtJoypPJPzwyazHWaCz-154" style="edgeStyle=orthogonalEdgeStyle;rounded=0;orthogonalLoop=1;jettySize=auto;html=1;" edge="1" parent="MYtJoypPJPzwyazHWaCz-63" source="MYtJoypPJPzwyazHWaCz-108" target="MYtJoypPJPzwyazHWaCz-69">
          <mxGeometry relative="1" as="geometry">
            <Array as="points">
              <mxPoint x="100" y="281" />
              <mxPoint x="290" y="281" />
            </Array>
          </mxGeometry>
        </mxCell>
        <mxCell id="MYtJoypPJPzwyazHWaCz-108" value="センサデータ現在値取得" style="swimlane;fontStyle=0;align=center;verticalAlign=top;childLayout=stackLayout;horizontal=1;startSize=26;horizontalStack=0;resizeParent=1;resizeLast=0;collapsible=1;marginBottom=0;rounded=1;shadow=0;strokeWidth=1;" vertex="1" parent="MYtJoypPJPzwyazHWaCz-63">
          <mxGeometry x="20" y="51" width="160" height="216" as="geometry">
            <mxRectangle x="550" y="140" width="160" height="26" as="alternateBounds" />
          </mxGeometry>
        </mxCell>
        <mxCell id="MYtJoypPJPzwyazHWaCz-109" value="処理内容" style="text;align=left;verticalAlign=top;spacingLeft=4;spacingRight=4;overflow=hidden;rotatable=0;points=[[0,0.5],[1,0.5]];portConstraint=eastwest;" vertex="1" parent="MYtJoypPJPzwyazHWaCz-108">
          <mxGeometry y="26" width="160" height="26" as="geometry" />
        </mxCell>
        <mxCell id="MYtJoypPJPzwyazHWaCz-110" value="" style="line;html=1;strokeWidth=1;align=left;verticalAlign=middle;spacingTop=-1;spacingLeft=3;spacingRight=3;rotatable=0;labelPosition=right;points=[];portConstraint=eastwest;" vertex="1" parent="MYtJoypPJPzwyazHWaCz-108">
          <mxGeometry y="52" width="160" height="8" as="geometry" />
        </mxCell>
        <mxCell id="MYtJoypPJPzwyazHWaCz-111" value="データ&#xa;" style="text;align=left;verticalAlign=top;spacingLeft=4;spacingRight=4;overflow=hidden;rotatable=0;points=[[0,0.5],[1,0.5]];portConstraint=eastwest;" vertex="1" parent="MYtJoypPJPzwyazHWaCz-108">
          <mxGeometry y="60" width="160" height="26" as="geometry" />
        </mxCell>
        <mxCell id="MYtJoypPJPzwyazHWaCz-112" value="入出力先" style="text;align=left;verticalAlign=top;spacingLeft=4;spacingRight=4;overflow=hidden;rotatable=0;points=[[0,0.5],[1,0.5]];portConstraint=eastwest;" vertex="1" parent="MYtJoypPJPzwyazHWaCz-108">
          <mxGeometry y="86" width="160" height="26" as="geometry" />
        </mxCell>
        <mxCell id="MYtJoypPJPzwyazHWaCz-113" value="" style="line;html=1;strokeWidth=1;align=left;verticalAlign=middle;spacingTop=-1;spacingLeft=3;spacingRight=3;rotatable=0;labelPosition=right;points=[];portConstraint=eastwest;" vertex="1" parent="MYtJoypPJPzwyazHWaCz-108">
          <mxGeometry y="112" width="160" height="8" as="geometry" />
        </mxCell>
        <mxCell id="MYtJoypPJPzwyazHWaCz-114" value="ユーザー入力" style="text;align=left;verticalAlign=top;spacingLeft=4;spacingRight=4;overflow=hidden;rotatable=0;points=[[0,0.5],[1,0.5]];portConstraint=eastwest;" vertex="1" parent="MYtJoypPJPzwyazHWaCz-108">
          <mxGeometry y="120" width="160" height="26" as="geometry" />
        </mxCell>
        <mxCell id="MYtJoypPJPzwyazHWaCz-140" style="edgeStyle=orthogonalEdgeStyle;rounded=0;orthogonalLoop=1;jettySize=auto;html=1;entryX=0;entryY=0.5;entryDx=0;entryDy=0;" edge="1" parent="MYtJoypPJPzwyazHWaCz-63" source="MYtJoypPJPzwyazHWaCz-124" target="MYtJoypPJPzwyazHWaCz-73">
          <mxGeometry relative="1" as="geometry" />
        </mxCell>
        <mxCell id="MYtJoypPJPzwyazHWaCz-124" value="過去データ取得" style="swimlane;fontStyle=0;align=center;verticalAlign=top;childLayout=stackLayout;horizontal=1;startSize=26;horizontalStack=0;resizeParent=1;resizeLast=0;collapsible=1;marginBottom=0;rounded=1;shadow=0;strokeWidth=1;" vertex="1" parent="MYtJoypPJPzwyazHWaCz-63">
          <mxGeometry x="20" y="291" width="160" height="204" as="geometry">
            <mxRectangle x="550" y="140" width="160" height="26" as="alternateBounds" />
          </mxGeometry>
        </mxCell>
        <mxCell id="MYtJoypPJPzwyazHWaCz-125" value="処理内容" style="text;align=left;verticalAlign=top;spacingLeft=4;spacingRight=4;overflow=hidden;rotatable=0;points=[[0,0.5],[1,0.5]];portConstraint=eastwest;" vertex="1" parent="MYtJoypPJPzwyazHWaCz-124">
          <mxGeometry y="26" width="160" height="26" as="geometry" />
        </mxCell>
        <mxCell id="MYtJoypPJPzwyazHWaCz-126" value="" style="line;html=1;strokeWidth=1;align=left;verticalAlign=middle;spacingTop=-1;spacingLeft=3;spacingRight=3;rotatable=0;labelPosition=right;points=[];portConstraint=eastwest;" vertex="1" parent="MYtJoypPJPzwyazHWaCz-124">
          <mxGeometry y="52" width="160" height="8" as="geometry" />
        </mxCell>
        <mxCell id="MYtJoypPJPzwyazHWaCz-127" value="データ&#xa;" style="text;align=left;verticalAlign=top;spacingLeft=4;spacingRight=4;overflow=hidden;rotatable=0;points=[[0,0.5],[1,0.5]];portConstraint=eastwest;" vertex="1" parent="MYtJoypPJPzwyazHWaCz-124">
          <mxGeometry y="60" width="160" height="26" as="geometry" />
        </mxCell>
        <mxCell id="MYtJoypPJPzwyazHWaCz-128" value="入出力先" style="text;align=left;verticalAlign=top;spacingLeft=4;spacingRight=4;overflow=hidden;rotatable=0;points=[[0,0.5],[1,0.5]];portConstraint=eastwest;" vertex="1" parent="MYtJoypPJPzwyazHWaCz-124">
          <mxGeometry y="86" width="160" height="26" as="geometry" />
        </mxCell>
        <mxCell id="MYtJoypPJPzwyazHWaCz-129" value="" style="line;html=1;strokeWidth=1;align=left;verticalAlign=middle;spacingTop=-1;spacingLeft=3;spacingRight=3;rotatable=0;labelPosition=right;points=[];portConstraint=eastwest;" vertex="1" parent="MYtJoypPJPzwyazHWaCz-124">
          <mxGeometry y="112" width="160" height="8" as="geometry" />
        </mxCell>
        <mxCell id="MYtJoypPJPzwyazHWaCz-130" value="ユーザ入力&#xa;&#xa;アプリ起動時" style="text;align=left;verticalAlign=top;spacingLeft=4;spacingRight=4;overflow=hidden;rotatable=0;points=[[0,0.5],[1,0.5]];portConstraint=eastwest;" vertex="1" parent="MYtJoypPJPzwyazHWaCz-124">
          <mxGeometry y="120" width="160" height="80" as="geometry" />
        </mxCell>
        <mxCell id="MYtJoypPJPzwyazHWaCz-132" value="グラフリセット" style="swimlane;fontStyle=0;align=center;verticalAlign=top;childLayout=stackLayout;horizontal=1;startSize=26;horizontalStack=0;resizeParent=1;resizeLast=0;collapsible=1;marginBottom=0;rounded=1;shadow=0;strokeWidth=1;" vertex="1" parent="MYtJoypPJPzwyazHWaCz-63">
          <mxGeometry x="380" y="291" width="160" height="216" as="geometry">
            <mxRectangle x="550" y="140" width="160" height="26" as="alternateBounds" />
          </mxGeometry>
        </mxCell>
        <mxCell id="MYtJoypPJPzwyazHWaCz-133" value="処理内容" style="text;align=left;verticalAlign=top;spacingLeft=4;spacingRight=4;overflow=hidden;rotatable=0;points=[[0,0.5],[1,0.5]];portConstraint=eastwest;" vertex="1" parent="MYtJoypPJPzwyazHWaCz-132">
          <mxGeometry y="26" width="160" height="26" as="geometry" />
        </mxCell>
        <mxCell id="MYtJoypPJPzwyazHWaCz-134" value="" style="line;html=1;strokeWidth=1;align=left;verticalAlign=middle;spacingTop=-1;spacingLeft=3;spacingRight=3;rotatable=0;labelPosition=right;points=[];portConstraint=eastwest;" vertex="1" parent="MYtJoypPJPzwyazHWaCz-132">
          <mxGeometry y="52" width="160" height="8" as="geometry" />
        </mxCell>
        <mxCell id="MYtJoypPJPzwyazHWaCz-135" value="データ&#xa;" style="text;align=left;verticalAlign=top;spacingLeft=4;spacingRight=4;overflow=hidden;rotatable=0;points=[[0,0.5],[1,0.5]];portConstraint=eastwest;" vertex="1" parent="MYtJoypPJPzwyazHWaCz-132">
          <mxGeometry y="60" width="160" height="26" as="geometry" />
        </mxCell>
        <mxCell id="MYtJoypPJPzwyazHWaCz-136" value="入出力先" style="text;align=left;verticalAlign=top;spacingLeft=4;spacingRight=4;overflow=hidden;rotatable=0;points=[[0,0.5],[1,0.5]];portConstraint=eastwest;" vertex="1" parent="MYtJoypPJPzwyazHWaCz-132">
          <mxGeometry y="86" width="160" height="26" as="geometry" />
        </mxCell>
        <mxCell id="MYtJoypPJPzwyazHWaCz-137" value="" style="line;html=1;strokeWidth=1;align=left;verticalAlign=middle;spacingTop=-1;spacingLeft=3;spacingRight=3;rotatable=0;labelPosition=right;points=[];portConstraint=eastwest;" vertex="1" parent="MYtJoypPJPzwyazHWaCz-132">
          <mxGeometry y="112" width="160" height="8" as="geometry" />
        </mxCell>
        <mxCell id="MYtJoypPJPzwyazHWaCz-138" value="アプリ起動時" style="text;align=left;verticalAlign=top;spacingLeft=4;spacingRight=4;overflow=hidden;rotatable=0;points=[[0,0.5],[1,0.5]];portConstraint=eastwest;" vertex="1" parent="MYtJoypPJPzwyazHWaCz-132">
          <mxGeometry y="120" width="160" height="26" as="geometry" />
        </mxCell>
        <mxCell id="MYtJoypPJPzwyazHWaCz-83" value="サーバ接続要求" style="swimlane;fontStyle=0;align=center;verticalAlign=top;childLayout=stackLayout;horizontal=1;startSize=26;horizontalStack=0;resizeParent=1;resizeLast=0;collapsible=1;marginBottom=0;rounded=1;shadow=0;strokeWidth=1;" vertex="1" parent="MYtJoypPJPzwyazHWaCz-63">
          <mxGeometry x="20" y="521" width="160" height="216" as="geometry">
            <mxRectangle x="550" y="140" width="160" height="26" as="alternateBounds" />
          </mxGeometry>
        </mxCell>
        <mxCell id="MYtJoypPJPzwyazHWaCz-84" value="処理内容" style="text;align=left;verticalAlign=top;spacingLeft=4;spacingRight=4;overflow=hidden;rotatable=0;points=[[0,0.5],[1,0.5]];portConstraint=eastwest;" vertex="1" parent="MYtJoypPJPzwyazHWaCz-83">
          <mxGeometry y="26" width="160" height="26" as="geometry" />
        </mxCell>
        <mxCell id="MYtJoypPJPzwyazHWaCz-85" value="" style="line;html=1;strokeWidth=1;align=left;verticalAlign=middle;spacingTop=-1;spacingLeft=3;spacingRight=3;rotatable=0;labelPosition=right;points=[];portConstraint=eastwest;" vertex="1" parent="MYtJoypPJPzwyazHWaCz-83">
          <mxGeometry y="52" width="160" height="8" as="geometry" />
        </mxCell>
        <mxCell id="MYtJoypPJPzwyazHWaCz-86" value="データ&#xa;" style="text;align=left;verticalAlign=top;spacingLeft=4;spacingRight=4;overflow=hidden;rotatable=0;points=[[0,0.5],[1,0.5]];portConstraint=eastwest;" vertex="1" parent="MYtJoypPJPzwyazHWaCz-83">
          <mxGeometry y="60" width="160" height="26" as="geometry" />
        </mxCell>
        <mxCell id="MYtJoypPJPzwyazHWaCz-87" value="入出力先" style="text;align=left;verticalAlign=top;spacingLeft=4;spacingRight=4;overflow=hidden;rotatable=0;points=[[0,0.5],[1,0.5]];portConstraint=eastwest;" vertex="1" parent="MYtJoypPJPzwyazHWaCz-83">
          <mxGeometry y="86" width="160" height="26" as="geometry" />
        </mxCell>
        <mxCell id="MYtJoypPJPzwyazHWaCz-88" value="" style="line;html=1;strokeWidth=1;align=left;verticalAlign=middle;spacingTop=-1;spacingLeft=3;spacingRight=3;rotatable=0;labelPosition=right;points=[];portConstraint=eastwest;" vertex="1" parent="MYtJoypPJPzwyazHWaCz-83">
          <mxGeometry y="112" width="160" height="8" as="geometry" />
        </mxCell>
        <mxCell id="MYtJoypPJPzwyazHWaCz-89" value="ユーザー入力" style="text;align=left;verticalAlign=top;spacingLeft=4;spacingRight=4;overflow=hidden;rotatable=0;points=[[0,0.5],[1,0.5]];portConstraint=eastwest;" vertex="1" parent="MYtJoypPJPzwyazHWaCz-83">
          <mxGeometry y="120" width="160" height="26" as="geometry" />
        </mxCell>
        <mxCell id="MYtJoypPJPzwyazHWaCz-162" style="edgeStyle=orthogonalEdgeStyle;rounded=0;orthogonalLoop=1;jettySize=auto;html=1;entryX=0.5;entryY=1;entryDx=0;entryDy=0;" edge="1" parent="MYtJoypPJPzwyazHWaCz-63" source="MYtJoypPJPzwyazHWaCz-147" target="MYtJoypPJPzwyazHWaCz-69">
          <mxGeometry relative="1" as="geometry" />
        </mxCell>
        <mxCell id="MYtJoypPJPzwyazHWaCz-147" value="過去データ閲覧" style="swimlane;fontStyle=0;align=center;verticalAlign=top;childLayout=stackLayout;horizontal=1;startSize=26;horizontalStack=0;resizeParent=1;resizeLast=0;collapsible=1;marginBottom=0;rounded=1;shadow=0;strokeWidth=1;" vertex="1" parent="MYtJoypPJPzwyazHWaCz-63">
          <mxGeometry x="210" y="533" width="160" height="204" as="geometry">
            <mxRectangle x="550" y="140" width="160" height="26" as="alternateBounds" />
          </mxGeometry>
        </mxCell>
        <mxCell id="MYtJoypPJPzwyazHWaCz-148" value="処理内容" style="text;align=left;verticalAlign=top;spacingLeft=4;spacingRight=4;overflow=hidden;rotatable=0;points=[[0,0.5],[1,0.5]];portConstraint=eastwest;" vertex="1" parent="MYtJoypPJPzwyazHWaCz-147">
          <mxGeometry y="26" width="160" height="26" as="geometry" />
        </mxCell>
        <mxCell id="MYtJoypPJPzwyazHWaCz-149" value="" style="line;html=1;strokeWidth=1;align=left;verticalAlign=middle;spacingTop=-1;spacingLeft=3;spacingRight=3;rotatable=0;labelPosition=right;points=[];portConstraint=eastwest;" vertex="1" parent="MYtJoypPJPzwyazHWaCz-147">
          <mxGeometry y="52" width="160" height="8" as="geometry" />
        </mxCell>
        <mxCell id="MYtJoypPJPzwyazHWaCz-150" value="データ&#xa;" style="text;align=left;verticalAlign=top;spacingLeft=4;spacingRight=4;overflow=hidden;rotatable=0;points=[[0,0.5],[1,0.5]];portConstraint=eastwest;" vertex="1" parent="MYtJoypPJPzwyazHWaCz-147">
          <mxGeometry y="60" width="160" height="26" as="geometry" />
        </mxCell>
        <mxCell id="MYtJoypPJPzwyazHWaCz-151" value="入出力先" style="text;align=left;verticalAlign=top;spacingLeft=4;spacingRight=4;overflow=hidden;rotatable=0;points=[[0,0.5],[1,0.5]];portConstraint=eastwest;" vertex="1" parent="MYtJoypPJPzwyazHWaCz-147">
          <mxGeometry y="86" width="160" height="26" as="geometry" />
        </mxCell>
        <mxCell id="MYtJoypPJPzwyazHWaCz-152" value="" style="line;html=1;strokeWidth=1;align=left;verticalAlign=middle;spacingTop=-1;spacingLeft=3;spacingRight=3;rotatable=0;labelPosition=right;points=[];portConstraint=eastwest;" vertex="1" parent="MYtJoypPJPzwyazHWaCz-147">
          <mxGeometry y="112" width="160" height="8" as="geometry" />
        </mxCell>
        <mxCell id="MYtJoypPJPzwyazHWaCz-153" value="ユーザ入力&#xa;&#xa;アプリ起動時" style="text;align=left;verticalAlign=top;spacingLeft=4;spacingRight=4;overflow=hidden;rotatable=0;points=[[0,0.5],[1,0.5]];portConstraint=eastwest;" vertex="1" parent="MYtJoypPJPzwyazHWaCz-147">
          <mxGeometry y="120" width="160" height="80" as="geometry" />
        </mxCell>
        <mxCell id="MYtJoypPJPzwyazHWaCz-106" value="タイトル色付き ... 実装済&lt;div&gt;タイトル白色 ... 未実装&lt;/div&gt;" style="text;html=1;align=right;verticalAlign=middle;whiteSpace=wrap;rounded=0;" vertex="1" parent="1">
          <mxGeometry x="30" y="670" width="190" height="30" as="geometry" />
        </mxCell>
        <mxCell id="MYtJoypPJPzwyazHWaCz-107" value="メモ：BLEとエッジノードを介さず、AWS Lambda等に送っちゃうのはアリ" style="text;html=1;align=center;verticalAlign=middle;whiteSpace=wrap;rounded=0;" vertex="1" parent="1">
          <mxGeometry x="290" y="770" width="220" height="30" as="geometry" />
        </mxCell>
        <mxCell id="MYtJoypPJPzwyazHWaCz-121" value="Socket" style="edgeStyle=orthogonalEdgeStyle;rounded=0;orthogonalLoop=1;jettySize=auto;html=1;entryX=0;entryY=0.5;entryDx=0;entryDy=0;endArrow=none;endFill=0;startArrow=classic;startFill=1;" edge="1" parent="1" source="MYtJoypPJPzwyazHWaCz-120" target="MYtJoypPJPzwyazHWaCz-87">
          <mxGeometry relative="1" as="geometry">
            <mxPoint x="1180" y="510" as="sourcePoint" />
            <Array as="points">
              <mxPoint x="1200" y="490" />
              <mxPoint x="1200" y="703" />
              <mxPoint x="1280" y="703" />
            </Array>
          </mxGeometry>
        </mxCell>
        <mxCell id="MYtJoypPJPzwyazHWaCz-145" style="edgeStyle=orthogonalEdgeStyle;rounded=0;orthogonalLoop=1;jettySize=auto;html=1;" edge="1" parent="1" source="MYtJoypPJPzwyazHWaCz-92" target="MYtJoypPJPzwyazHWaCz-68">
          <mxGeometry relative="1" as="geometry">
            <Array as="points">
              <mxPoint x="940" y="207" />
              <mxPoint x="940" y="613" />
            </Array>
          </mxGeometry>
        </mxCell>
        <mxCell id="MYtJoypPJPzwyazHWaCz-158" style="edgeStyle=orthogonalEdgeStyle;rounded=0;orthogonalLoop=1;jettySize=auto;html=1;" edge="1" parent="1" source="MYtJoypPJPzwyazHWaCz-92" target="MYtJoypPJPzwyazHWaCz-91">
          <mxGeometry relative="1" as="geometry" />
        </mxCell>
        <mxCell id="MYtJoypPJPzwyazHWaCz-159" style="edgeStyle=orthogonalEdgeStyle;rounded=0;orthogonalLoop=1;jettySize=auto;html=1;" edge="1" parent="1" source="MYtJoypPJPzwyazHWaCz-92" target="MYtJoypPJPzwyazHWaCz-117">
          <mxGeometry relative="1" as="geometry">
            <Array as="points">
              <mxPoint x="940" y="207" />
              <mxPoint x="940" y="354" />
            </Array>
          </mxGeometry>
        </mxCell>
        <mxCell id="MYtJoypPJPzwyazHWaCz-160" style="edgeStyle=orthogonalEdgeStyle;rounded=0;orthogonalLoop=1;jettySize=auto;html=1;" edge="1" parent="1" source="MYtJoypPJPzwyazHWaCz-92" target="MYtJoypPJPzwyazHWaCz-120">
          <mxGeometry relative="1" as="geometry">
            <Array as="points">
              <mxPoint x="940" y="207" />
              <mxPoint x="940" y="498" />
            </Array>
          </mxGeometry>
        </mxCell>
        <mxCell id="MYtJoypPJPzwyazHWaCz-163" value="&lt;div&gt;センサデータ&lt;/div&gt;Socket" style="edgeStyle=orthogonalEdgeStyle;rounded=0;orthogonalLoop=1;jettySize=auto;html=1;entryX=0;entryY=0.5;entryDx=0;entryDy=0;" edge="1" parent="1" source="MYtJoypPJPzwyazHWaCz-90" target="MYtJoypPJPzwyazHWaCz-111">
          <mxGeometry relative="1" as="geometry" />
        </mxCell>
        <mxCell id="MYtJoypPJPzwyazHWaCz-165" value="&lt;div&gt;24時間分の&lt;/div&gt;&lt;div&gt;センサデータ&lt;/div&gt;REST" style="edgeStyle=orthogonalEdgeStyle;rounded=0;orthogonalLoop=1;jettySize=auto;html=1;" edge="1" parent="1" source="MYtJoypPJPzwyazHWaCz-116" target="MYtJoypPJPzwyazHWaCz-127">
          <mxGeometry relative="1" as="geometry">
            <Array as="points">
              <mxPoint x="1200" y="341" />
              <mxPoint x="1200" y="453" />
            </Array>
          </mxGeometry>
        </mxCell>
        <mxCell id="MYtJoypPJPzwyazHWaCz-167" value="おそらくREST?" style="edgeStyle=orthogonalEdgeStyle;rounded=0;orthogonalLoop=1;jettySize=auto;html=1;entryX=0.492;entryY=1.013;entryDx=0;entryDy=0;entryPerimeter=0;dashed=1;" edge="1" parent="1" source="MYtJoypPJPzwyazHWaCz-67" target="MYtJoypPJPzwyazHWaCz-153">
          <mxGeometry relative="1" as="geometry">
            <Array as="points">
              <mxPoint x="1035" y="860" />
              <mxPoint x="1549" y="860" />
            </Array>
          </mxGeometry>
        </mxCell>
      </root>
    </mxGraphModel>
  </diagram>
</mxfile>
